<svg width="520" height="449" viewBox="0 0 520 449" fill="none" xmlns="http://www.w3.org/2000/svg">
<path d="M0 9.99999C0 4.47714 4.47715 0 10 0H471.632C476.475 0 480.621 3.4702 481.475 8.23722L519.686 221.607C519.894 222.767 519.895 223.954 519.689 225.115L481.463 440.746C480.617 445.521 476.466 449 471.617 449H9.99999C4.47714 449 0 444.523 0 439V9.99999Z" fill="#3CB0DF" fill-opacity="0.4"/>
<path d="M1 9.99999C1 5.02943 5.02944 1 10 1H471.632C475.99 1 479.723 4.12318 480.491 8.4135L518.702 221.783C518.889 222.827 518.889 223.896 518.704 224.94L480.479 440.571C479.717 444.869 475.981 448 471.617 448H9.99999C5.02943 448 1 443.971 1 439V9.99999Z" stroke="white" stroke-opacity="0.8" stroke-width="2"/>
</svg>
