<svg width="156" height="156" viewBox="0 0 156 156" fill="none" xmlns="http://www.w3.org/2000/svg">
<path fill-rule="evenodd" clip-rule="evenodd" d="M102.233 150.528V155.899H107.603V150.528H102.233ZM96.8625 150.528H91.4925V155.899H96.8625V150.528ZM80.7525 155.899H86.1225V150.528H80.7525V155.899ZM150.596 145.156V150.528H155.966V145.156H150.596ZM96.8625 150.528H102.233V145.156H96.8625V150.528ZM134.452 64.5552H139.822V59.1841H134.452V64.5552ZM86.0888 37.6994H91.4588V32.3283H86.0888V37.6994ZM102.199 37.6994V32.3283H96.8288V37.6994H102.199ZM96.8288 5.43872H102.199V0.0675761H96.8288V5.43872ZM48.465 37.6994V32.3283H43.095V37.6994H48.465ZM91.4588 10.8437H96.8288V5.47251H91.4588V10.8437ZM150.562 129.077V123.706H145.192V129.077H150.562ZM43.095 107.592H48.465V102.221H43.095V107.592ZM53.835 59.2178V53.8467H48.465V59.2178H53.835ZM107.569 64.589V59.2178H102.199V64.589H107.569ZM5.47131 80.7025V75.3313H0.168868V80.7025H5.53886H5.47131ZM107.569 16.2148V10.8437H102.199V16.2148H107.569ZM32.3551 69.9602H37.7251V64.589H32.3551V69.9602ZM134.452 102.221H139.822V96.8497H134.452V102.221ZM129.083 75.3651H134.452V69.9939H129.083V75.3651ZM5.50509 86.1074H10.8751V80.7363H5.50509V86.1074ZM32.3551 80.7363H37.7251V75.3651H32.3551V80.7363ZM150.562 86.1074H155.932V80.7363H150.562V86.1074ZM107.569 10.8774H112.939V5.5063H107.569V10.8774ZM118.309 123.739H123.679V118.368H118.275V123.739H118.309ZM43.095 156H48.465V145.258H43.095V156ZM139.822 48.5093V53.8805H150.562V48.5093H139.822ZM48.4988 27.0247V16.2824H43.1288V27.0247H48.4988ZM150.596 139.887H155.966V129.144H150.596V139.887ZM37.7588 75.2637H48.4988V69.8926H37.7588V75.2637ZM86.1225 134.38H80.7525V145.123H91.4925V139.751H86.1225V134.38ZM139.856 112.896H155.966V107.524H139.856V112.896ZM145.226 75.2637H155.966V64.5214H150.596V69.8926H145.226V75.2637ZM139.856 48.408V43.0368H129.116V48.408H123.746V53.7791H134.486V48.408H139.856ZM53.9026 53.7791H59.2726V43.0368H53.9026V37.6657H48.5326V48.408H53.9026V53.7791ZM75.3826 43.0368V37.6657H70.0126V32.2945H64.6426V48.408H70.0126V43.0368H75.3826ZM70.0126 32.2945H75.3826V37.6657H80.7525V26.9233H75.3826V21.5522H64.6426V26.9233H70.0126V32.2945ZM118.376 75.2975H123.746V69.9264H129.116V59.1841H118.343V75.2975H118.376ZM5.57264 86.0398H0.168868V112.896H5.53886V102.153H10.9089V96.7822H5.53886V86.0398H5.57264ZM0.202641 48.408H5.57264V53.7791H0.202641V64.5214H5.57264V59.1503H10.9426V43.0368H0L0.168868 48.408H0.202641ZM5.57264 75.2637H10.9426V80.6349H27.0526V75.2637H32.4226V69.8926H21.6826V75.2637H16.2789V69.8926H5.57264V75.2637ZM53.9364 139.751V155.865H64.6763V145.123H70.0801V139.751H53.9701H53.9364ZM10.9426 145.123H26.8837L27.0526 129.009H11.0777L10.9089 145.123H10.9426ZM134.52 80.6349H139.89V86.0061H134.52V91.3772H139.89V96.7484H150.63V102.12H156V91.3772H145.26V75.2637H134.52V80.6349ZM129.15 26.8896H145.26V10.7761H129.15V26.8896ZM10.9426 26.8896H27.0526V10.7761H10.9089V26.8896H10.9426ZM43.1964 112.862V128.975H48.5664V139.718H53.9364V123.604H59.3063V112.862H64.6763V102.12H59.3063V107.491H53.9364V118.233H48.5664V112.862H43.1964ZM48.5664 16.1135H53.9364V26.8558H48.5664V32.2269H53.9364V37.5981H59.3063V21.4846H64.6763V10.7423H70.0126V5.37117H64.6426V0H48.5326V5.37117H59.2726V10.7423H48.5326V16.1135H48.5664ZM27.0864 48.3742V53.7454H37.8264V48.3742H27.0864ZM27.0864 48.3742H16.3464V64.4877H21.7164V59.1165H27.0864V64.4877H32.4564V59.1165H43.1964V43.003H27.1202V48.3742H27.0864ZM70.0126 5.37117H75.3826V21.4846H86.1225V26.8558H112.939V16.1135H107.603V21.4846H96.8625V16.1135H91.5263V10.7423H80.7525V0H70.0126V5.37117ZM64.6426 112.862V118.233H70.0126V123.604H64.6426V128.975H59.2726V134.346H75.3826V123.604H80.7525V128.975H86.1225V134.346H91.4925V123.604H86.1225V112.862H96.8625V107.491H80.7525V118.233H75.3826V112.862H64.6426ZM37.7926 96.7484V91.3772H32.4564V96.7484H37.7926ZM53.9026 59.1165V64.4877H48.5326V69.8588H53.9026V75.23H48.5326V80.6011H37.7926V85.9723H32.4226V80.6011H27.0526V85.9723H16.3126V91.3434H27.0526V96.7146H16.3126V107.457H10.9426V112.828H21.6826V102.086H27.0526V112.828H43.1626V107.457H32.4226V102.086H37.7926V96.7146H43.1626V91.3434H48.5326V102.086H53.9026V96.7146H59.2726V91.3434H53.9026V80.6011H59.2726V64.4877H64.6426V59.1165H70.0126V53.7454H59.2726V59.1165H53.9026ZM5.53886 32.2607H32.3888V5.40493H5.43754L5.50509 32.2607H5.53886ZM0.168868 37.6319H37.7588V0H0.337736L0.168868 37.6319ZM123.746 32.2607H150.596V5.40493H123.746V32.2607ZM118.376 37.6319H155.932V0H118.376V37.6319ZM5.53886 150.528H32.5577L32.3888 123.672H5.53886V150.528ZM0.168868 155.899H37.7588V118.267H0.168868V155.899ZM129.116 150.528H134.486V145.156H129.116V150.528ZM129.116 139.785H134.486V134.414H129.116V139.785ZM118.376 139.785H123.746V134.414H118.376V139.785ZM113.006 129.043H129.116V112.929H113.074L113.006 129.043ZM113.006 96.7822H107.636V102.153H113.006V96.7822ZM113.006 96.7822H118.376V91.411H123.713V86.0398H112.973V80.6687H107.603V91.411H113.006V96.7822ZM96.8625 86.0398V91.411H102.199V86.0398H96.8625ZM96.8625 80.6687H107.603V75.2975H96.8625V80.6687ZM96.8625 86.0398V80.6687H80.7525V86.0398H86.1225V91.411H91.4588V86.0398H96.8625ZM80.7525 69.9264H86.1225V64.5552H80.7525V69.9264ZM86.1225 53.8129H91.4925V48.4418H86.1225V53.8129ZM102.233 37.6994V43.0706H75.3826V53.8129H80.7525V59.1841H75.3826V64.5552H70.0126V69.9264H64.6426V75.2975H70.0126V80.6687H64.6426V91.411H70.0126V86.0398H75.3826V91.411H80.7525V96.7822H64.6426V102.153H75.3826V107.524H80.7525V102.153H91.4925V96.7822H102.233V112.896H107.603V118.267H91.4925V123.638H96.8625V129.009H102.233V134.38H107.636V139.751H112.973V150.494H123.713V155.865H145.192V145.123H150.562V139.751H145.192V134.38H139.822V129.009H134.452V123.638H145.192V118.267H139.822V112.896H134.452V102.153H123.713V96.7822H134.452V91.411H129.083V86.0398H134.452V80.6687H129.083V75.2975H123.713V80.6687H118.343V75.2975H112.973V64.5552H107.603V69.9264H96.8625V75.2975H91.4925V59.1841H96.8625V53.8129H107.603V59.1841H112.973V48.4418H107.603V43.0706H112.973V32.3283H107.603V37.6994H102.233Z" fill="#0E3759"/>
</svg>
