<svg width="156" height="156" viewBox="0 0 156 156" fill="none" xmlns="http://www.w3.org/2000/svg">
<path fill-rule="evenodd" clip-rule="evenodd" d="M93.5715 18.7154H99.8172V12.4674H93.5715V18.7154ZM112.28 118.569H118.526V112.321H112.28V118.569ZM6.2457 93.6057H0V99.8537H6.2457V93.6057ZM49.9086 43.6789H56.1543V37.4309H49.9086V43.6789ZM56.1543 6.24799V0H49.9086V6.24799H56.1543ZM37.4457 56.1748H43.6914V49.9268H37.4457V56.1748ZM87.3543 112.321V118.569H93.6V112.321H87.3543ZM149.726 56.1748H155.971V49.9268H149.726V56.1748ZM74.8629 62.4228H81.1086V56.1748H74.8629V62.4228ZM118.526 62.4228H124.771V56.1748H118.526V62.4228ZM149.726 56.1748H143.48V62.4228H149.726V56.1748ZM112.309 149.781V143.533H106.063V149.781H112.309ZM49.9086 56.1463H56.1543V49.8983H49.9086V56.1463ZM106.034 56.1463H112.28V49.8983H106.034V56.1463ZM56.1258 112.293V106.045H49.8801V112.293H56.1258ZM62.3715 93.5772H68.6172V87.3292H62.3715V93.5772ZM68.6172 118.541V112.293H56.1543V118.541H68.6172ZM43.6629 99.8252H31.2V106.073H43.6629V99.8252ZM149.697 93.5772V87.3292H137.234V93.5772H149.697ZM74.8344 49.8983H81.0801V37.4309H74.8344V49.8983ZM99.7887 43.6503H106.034V31.1829H99.7887V43.6503ZM99.7887 12.4389H106.034V0H99.7887V12.4674V12.4389ZM124.743 56.1178H143.452V49.8698H124.743V56.1178ZM99.7887 56.1178V43.6503H93.543V49.8983H87.2973V56.1463H99.7601L99.7887 56.1178ZM68.5887 112.264H74.8344V118.512H81.0801V112.264H87.3258V99.7966H81.0801V106.045H68.6172V112.293L68.5887 112.264ZM130.96 74.8332H137.206V81.0812H149.669V87.3292H155.914V74.8617H143.452V68.6138H130.989V74.8617L130.96 74.8332ZM12.4629 143.533H31.1715V124.817H12.4629V143.533ZM12.4629 31.2114H31.1715V12.4674H12.4629V31.1829V31.2114ZM124.743 31.2114H143.452V12.4674H124.743V31.1829V31.2114ZM6.2457 93.6057H12.4914V106.073H18.7371V87.3577H12.4914V62.3943H0V81.1097H6.2457V93.5772V93.6057ZM56.1258 6.24799V12.496H49.8801V31.2114H56.1258V24.9634H68.5887V12.4674H81.0516V6.24799H87.2973V0H74.8344V6.24799H68.5887V0H62.343V6.24799H56.0973H56.1258ZM18.7086 87.3577H24.9543V93.6057H31.2V87.3577H37.4457V81.1097H31.2V74.8617H37.4457V68.6138H43.6914V62.3658H31.2285V56.1178H24.9828V49.8698H0V56.1178H18.7086V62.3658H24.9543V68.6138H18.7086V87.3292V87.3577ZM62.3715 131.037V137.285H56.1258V143.533H68.5887V131.065H62.343L62.3715 131.037ZM62.3715 131.037H49.9086V156H68.6172V149.752H74.8629V143.504H81.1086V155.971H93.5715V149.723H87.3258V143.475H99.7887V137.228H93.543V124.76H87.2973V137.228H74.8344V118.512H68.5887V124.76H62.343V131.008L62.3715 131.037ZM81.0801 31.2114H87.3258V24.9634H81.0801V31.2114ZM68.6172 24.9634V31.2114H62.3715V62.4228H56.1258V74.8903H37.4172V81.1383H43.6629V87.3862H37.4172V93.6342H43.6629V99.8822H49.9086V93.6342H56.1543V81.1668H68.6172V68.6993H74.8629V62.4514H68.6172V56.2034H74.8629V49.9554H68.6172V37.4879H74.8629V31.2399H81.1086V37.4879H87.3543V43.7359H93.6V31.2685H99.8457V25.0205H93.6V18.7725H87.3543V12.5245H81.1086V18.7725H74.8629V25.0205H68.6172V24.9634ZM118.526 37.4309H149.726V6.24799H118.526V37.4309ZM112.28 43.6789H155.943V0H112.28V43.6789ZM6.2457 37.4309H37.4172V6.24799H6.2457V37.4309ZM0 43.6789H43.6629V0H0V43.6789ZM6.2457 149.752H37.4172V118.541H6.2457V149.752ZM0 156H43.6629V112.321H0V156ZM130.989 149.752H137.234V137.285H130.989V149.752ZM106.034 124.789H124.743V106.073H106.034V124.789ZM130.989 124.789H137.234V131.037H149.697V118.569H137.234V106.102H130.989V124.817V124.789ZM143.452 112.321H149.697V106.073H143.452V112.321ZM106.034 81.1097V99.8252H118.497V93.5772H124.743V87.3292H112.28V81.0812H106.034V81.1097ZM106.034 81.1097V74.8617H93.5715V81.1097H106.034ZM81.0801 81.1097V87.3577H87.3258V81.1097H81.0801ZM81.0801 81.1097H74.8344V99.8252H81.0801V93.5772H93.543V87.3292H99.7887V99.7966H93.543V106.045H99.7887V131.008H106.034V137.256H112.28V143.504H118.526V131.037H124.771V149.752H112.309V156H155.971V149.752H143.509V143.504H149.754V137.256H156V93.5772H149.754V99.8252H131.046V74.8617H124.8V81.1097H118.554V62.3943H112.309V68.6423H106.063V56.1748H99.8172V68.6423H93.5715V62.3943H87.3258V68.6423H81.0801V81.1097Z" fill="#0E3759"/>
</svg>
